# xmcd CD database file
#
# Track frame offsets:
#	150
#	47385
#	61765
#	97375
#	126600
#	144895
#	171152
#	188830
#	207987
#
# Disc length: 3093 seconds
#
# Revision: 2
# Processed by: cddbd v1.5.1PL0 Copyright (c) Steve Scherf et al.
# Submitted via: CDex 1.51
#
DISCID=820c1309
DTITLE=Drink Small - Electric Blues Doctor Live
DYEAR=1994
DGENRE=Blues
TTITLE0=Stormy Monday Blues
TTITLE1=I Feel Good
TTITLE2=Three O'Clock In The Morning
TTITLE3=The Things I Used To Do I Don't Do No More
TTITLE4=I Really Don't Want To Know
TTITLE5=Charleston Woman
TTITLE6=Instrumental
TTITLE7=I'm In Love With A Grandma
TTITLE8=Shout
EXTD=YEAR: 1994
EXTT0=
EXTT1=
EXTT2=
EXTT3=
EXTT4=
EXTT5=
EXTT6=
EXTT7=
EXTT8=
PLAYORDER=
